<?xml version="1.0" encoding="utf-8"?>
<!-- Generator: Adobe Illustrator 24.3.0, SVG Export Plug-In . SVG Version: 6.00 Build 0)  -->
<svg version="1.1" id="Calque_1" xmlns="http://www.w3.org/2000/svg" xmlns:xlink="http://www.w3.org/1999/xlink" x="0px" y="0px"
	 viewBox="0 0 1920 1080" style="enable-background:new 0 0 1920 1080;" xml:space="preserve">
<style type="text/css">
	.st0{opacity:0.5;}
	.st1{fill:#D67311;}
	.st2{fill:#BA6516;}
	.st3{fill:#FCC010;}
	.st4{fill:#FFD008;}
	.st5{fill:#F6A11A;}
	.st6{fill:#FFDC0A;}
	.st7{fill:#FAB513;}
	.st8{opacity:0.27;fill:#FAB513;enable-background:new    ;}
	.st9{fill:#F18619;}
	.st10{fill:#C96C14;}
	.st11{fill:#F28A1A;}
	.st12{opacity:0.47;fill:#F28A1A;enable-background:new    ;}
	.st13{opacity:0.35;fill:#FAB513;enable-background:new    ;}
	.st14{fill:#FFEE79;}
</style>
<g class="st0">
	<g>
		<path class="st1" d="M986.3,724l0.8-1.8c-13.8,0-40.5,0-54.4,0c0.1,0.6,18,31.8,0,67.9l0,0c13.8,0,40.5,0,54.4,0l0,0
			C976.7,769.4,976.3,745.1,986.3,724z"/>
		<path class="st2" d="M987.1,790.1L987.1,790.1c-10.5-20.7-10.7-45.2-0.8-66.1l0.8-1.8c-13.8,0-40.5,0-54.4,0
			c0,0.3,2.4,4.4,4.5,11.2c9.6,1.6,23,5.4,28.6,13.9c6.2,9.2,6.9,29.7,6.7,42.8C978.1,790.1,983.2,790.1,987.1,790.1z"/>
		<path class="st3" d="M1069.7,387.3h35.5c67.5,0,122.4-58.8,122.4-131.1v-62.6c0-19.6-30.3-19.6-30.3,0v12
			c0,12.2-9.2,22.1-20.7,22.1h-43.8v-17h43.8c2.6,0,4.8-2.3,4.8-5v-12c0-42.3,62.1-42.3,62.1,0v62.6c0,81.8-62,148.1-138.3,148.1
			h-64.6C1050.9,399.8,1060.6,394.2,1069.7,387.3z"/>
		<path class="st4" d="M850.2,387.3h-35.3c-67.5,0-122.4-58.8-122.4-131.1v-62.6c0-19.6,30.3-19.6,30.3,0v12
			c0,12.2,9.2,22.1,20.7,22.1h43.8v-17h-43.8c-2.6,0-4.8-2.3-4.8-5v-12c0-42.3-62.1-42.3-62.1,0v62.6c0,81.8,62,148.1,138.3,148.1
			h64.6C869,399.8,859.2,394.2,850.2,387.3z"/>
		<g>
			<path class="st5" d="M1105,387.3h-35.3c-9.1,6.8-18.8,12.5-29.1,17h45.9c7.2-5.2,14-10.9,20.4-17
				C1106.3,387.3,1105.7,387.3,1105,387.3z"/>
			<rect x="1132.7" y="210.7" class="st5" width="29.4" height="17"/>
		</g>
		<g>
			<rect x="757.8" y="210.7" class="st5" width="29.4" height="17"/>
			<path class="st5" d="M814.8,387.3c-0.6,0-1.1,0-1.8,0c6.4,6.2,13.2,11.9,20.4,17h45.9c-10.3-4.5-20.2-10.2-29.1-17H814.8z"/>
		</g>
		<path class="st6" d="M1131.2,163c-94,0-289,0-342.5,0c-15.6,0-28.4,12.7-28.4,28.4c44.9,0,354.3,0,399.2,0
			C1159.6,175.7,1146.8,163,1131.2,163z"/>
		<path class="st7" d="M780.1,191.4v66c0,82.9,63.8,150.9,145.1,158c17.8,0,52.4,0,69.4,0c81.4-7.1,145.1-75.2,145.1-158v-66
			C1088.5,191.4,831.4,191.4,780.1,191.4z"/>
		<path class="st8" d="M809.7,246.1c-10.1,0-19.9,0.4-29.5,1.1v10.1c0,44,18,83.9,47.1,112.7c74.7-3.7,132.7-29.9,132.7-61.7
			C959.9,274,892.7,246.1,809.7,246.1z"/>
		<path class="st9" d="M1092.3,191.4V228c0,82.9-63.6,154.4-145.1,158c-16.9,0.8-51.6,0.8-69.4,0c-15.8-0.6-30.9-5-44.9-10.7
			c25,22.3,57,37,92.4,40.1c17.8,0,52.4,0,69.4,0c81.4-7.1,145.1-75.2,145.1-158v-66C1130.2,191.4,1113.5,191.4,1092.3,191.4z"/>
		<path class="st1" d="M927.3,415.5v37.9c16.5,0,36.1,0,65.4,0v-37.9C976,415.5,956.5,415.5,927.3,415.5z"/>
		<path class="st10" d="M927.3,437.7h65.4v-22.3c-16.5,0-36.1,0-65.4,0V437.7z"/>
		<path class="st4" d="M912.5,453.2V486c47.7,0,47.1,0,94.9,0v-32.8C959.6,453.2,960.3,453.2,912.5,453.2z"/>
		<path class="st6" d="M1014.2,486.1c-22.5,0-83.5,0-108.6,0c-5,0-9.2,4.2-9.2,9.2v7.2c37.7,0,85,0,126.9,0v-7.2
			C1023.4,490.2,1019.4,486.1,1014.2,486.1z"/>
		<path class="st11" d="M884.2,502.4l49.7,171.2c14.5,0,27,0,52.6,0l49.1-171.2C1018.7,502.4,901.1,502.4,884.2,502.4z"/>
		<path class="st12" d="M933.9,673.8c2.5,0,2.6,0,5.3,0c22.2-21.5,37-58.4,37-100.4c0-26.5-5.8-51-15.6-70.8c-33.8,0-67.8,0-76.2,0
			L933.9,673.8z"/>
		<path class="st6" d="M986.2,673.8c-18.2,0-33.4,0-52.5,0c-13.4,0-24.2,10.7-24.4,24.1c30.3,0,68.5,0,101.2,0
			C1010.4,684.5,999.6,673.8,986.2,673.8z"/>
		<path class="st11" d="M1010.5,697.7c-30.3,0-68.5,0-101.2,0c-0.1,13.4,10.7,24.5,24.4,24.5c18.2,0,33.4,0,52.5,0
			C999.8,722.3,1010.8,711.1,1010.5,697.7z"/>
		<path class="st6" d="M1008.5,790.1c-46.8,0-56.4,0-97.2,0c-9.6,0-17.3,7.7-17.3,17.3v5.9c67.6,0,64.1,0,131.6,0v-5.9
			C1025.8,797.8,1018,790.1,1008.5,790.1z"/>
		<path class="st7" d="M868.3,813.3v87.2c20.4,0,162.6,0,183.2,0v-87.2C1031,813.3,888.8,813.3,868.3,813.3z"/>
		<path class="st13" d="M868.3,893.3c6.4,0.5,13.1,0.8,19.8,0.8c71.4,0,129.5-30.9,129.5-68.9c0-4-0.6-8.1-1.9-11.9
			c-49.7,0-132.1,0-147.3,0v80H868.3z"/>
		<path class="st6" d="M1054.7,900.5c-59.4,0-129.8,0-189.4,0c-8.8,0-15.9,7.1-15.9,15.9v1.6c25,0,196.3,0,221.2,0v-1.6
			C1070.6,907.6,1063.4,900.5,1054.7,900.5z"/>
	</g>
	<g>
		<path class="st14" d="M1117.4,180.5H912.1c-1.9,0-3.4-1.5-3.4-3.4c0-1.9,1.5-3.4,3.4-3.4h205.3c1.9,0,3.4,1.5,3.4,3.4
			C1120.7,179,1119.2,180.5,1117.4,180.5z"/>
	</g>
	<g>
		<path class="st14" d="M893.1,180.5H844c-1.9,0-3.4-1.5-3.4-3.4c0-1.9,1.5-3.4,3.4-3.4h49.1c1.9,0,3.4,1.5,3.4,3.4
			C896.5,179,895,180.5,893.1,180.5z"/>
	</g>
	<g>
		<path class="st14" d="M821.3,180.5h-37.7c-1.9,0-3.4-1.5-3.4-3.4c0-1.9,1.5-3.4,3.4-3.4h37.7c1.9,0,3.4,1.5,3.4,3.4
			C824.5,179,823,180.5,821.3,180.5z"/>
	</g>
</g>
</svg>
