<?xml version="1.0" encoding="utf-8"?>
<!-- Generator: Adobe Illustrator 24.3.0, SVG Export Plug-In . SVG Version: 6.00 Build 0)  -->
<svg version="1.1" id="Calque_1" xmlns="http://www.w3.org/2000/svg" xmlns:xlink="http://www.w3.org/1999/xlink" x="0px" y="0px"
	 viewBox="0 0 1920 1080" style="enable-background:new 0 0 1920 1080;" xml:space="preserve">
<style type="text/css">
	.st0{opacity:0.75;}
	.st1{fill:#D67311;}
	.st2{fill:#BA6516;}
	.st3{fill:#FCC010;}
	.st4{fill:#FFD008;}
	.st5{fill:#F6A11A;}
	.st6{fill:#FFDC0A;}
	.st7{fill:#FAB513;}
	.st8{opacity:0.27;fill:#FAB513;}
	.st9{fill:#F18619;}
	.st10{fill:#C96C14;}
	.st11{fill:#F28A1A;}
	.st12{opacity:0.47;fill:#F28A1A;}
	.st13{opacity:0.35;fill:#FAB513;}
	.st14{fill:#FFEE79;}
</style>
<g class="st0">
	<g>
		<path class="st1" d="M979.9,850.7l0.6-1.4c-10.9,0-32.1,0-43.1,0c0.1,0.5,14.3,25.2,0,53.8l0,0c10.9,0,32.1,0,43.1,0l0,0
			C972.3,886.7,972,867.4,979.9,850.7z"/>
		<path class="st2" d="M980.5,903.1L980.5,903.1c-8.3-16.4-8.5-35.8-0.6-52.4l0.6-1.4c-10.9,0-32.1,0-43.1,0c0,0.2,1.9,3.5,3.6,8.9
			c7.6,1.3,18.2,4.3,22.7,11c4.9,7.3,5.5,23.5,5.3,33.9C973.4,903.1,977.4,903.1,980.5,903.1z"/>
		<path class="st3" d="M1046,583.9h28.1c53.5,0,97-46.6,97-103.9v-49.6c0-15.5-24-15.5-24,0v9.5c0,9.7-7.3,17.5-16.4,17.5h-34.7
			v-13.5h34.7c2.1,0,3.8-1.8,3.8-4v-9.5c0-33.5,49.2-33.5,49.2,0V480c0,64.8-49.1,117.4-109.6,117.4h-51.2
			C1031.1,593.8,1038.8,589.3,1046,583.9z"/>
		<path class="st4" d="M872,583.9H844c-53.5,0-97-46.6-97-103.9v-49.6c0-15.5,24-15.5,24,0v9.5c0,9.7,7.3,17.5,16.4,17.5h34.7v-13.5
			h-34.7c-2.1,0-3.8-1.8-3.8-4v-9.5c0-33.5-49.2-33.5-49.2,0V480c0,64.8,49.1,117.4,109.6,117.4h51.2
			C886.9,593.8,879.2,589.3,872,583.9z"/>
		<g>
			<path class="st5" d="M1074,583.9H1046c-7.2,5.4-14.9,9.9-23.1,13.5h36.4c5.7-4.1,11.1-8.6,16.2-13.5
				C1075,583.9,1074.5,583.9,1074,583.9z"/>
			<rect x="1095.9" y="443.9" class="st5" width="23.3" height="13.5"/>
		</g>
		<g>
			<rect x="798.8" y="443.9" class="st5" width="23.3" height="13.5"/>
			<path class="st5" d="M844,583.9c-0.5,0-0.9,0-1.4,0c5.1,4.9,10.5,9.4,16.2,13.5h36.4c-8.2-3.6-16-8.1-23.1-13.5H844z"/>
		</g>
		<path class="st6" d="M1094.7,406.1c-74.5,0-229,0-271.4,0c-12.4,0-22.5,10.1-22.5,22.5c35.6,0,280.8,0,316.4,0
			C1117.2,416.2,1107.1,406.1,1094.7,406.1z"/>
		<path class="st7" d="M816.5,428.6v52.3c0,65.7,50.6,119.6,115,125.2c14.1,0,41.5,0,55,0c64.5-5.6,115-59.6,115-125.2v-52.3
			C1060.9,428.6,857.1,428.6,816.5,428.6z"/>
		<path class="st8" d="M839.9,472c-8,0-15.8,0.3-23.4,0.9v8c0,34.9,14.3,66.5,37.3,89.3c59.2-2.9,105.2-23.7,105.2-48.9
			C959,494.1,905.7,472,839.9,472z"/>
		<path class="st9" d="M1063.9,428.6v29c0,65.7-50.4,122.4-115,125.2c-13.4,0.6-40.9,0.6-55,0c-12.5-0.5-24.5-4-35.6-8.5
			c19.8,17.7,45.2,29.3,73.2,31.8c14.1,0,41.5,0,55,0c64.5-5.6,115-59.6,115-125.2v-52.3C1093.9,428.6,1080.7,428.6,1063.9,428.6z"
			/>
		<path class="st1" d="M933.1,606.2v30c13.1,0,28.6,0,51.8,0v-30C971.7,606.2,956.3,606.2,933.1,606.2z"/>
		<path class="st10" d="M933.1,623.8h51.8v-17.7c-13.1,0-28.6,0-51.8,0V623.8z"/>
		<path class="st4" d="M921.4,636.1v26c37.8,0,37.3,0,75.2,0v-26C958.7,636.1,959.3,636.1,921.4,636.1z"/>
		<path class="st6" d="M1002,662.2c-17.8,0-66.2,0-86.1,0c-4,0-7.3,3.3-7.3,7.3v5.7c29.9,0,67.4,0,100.6,0v-5.7
			C1009.3,665.4,1006.1,662.2,1002,662.2z"/>
		<path class="st11" d="M899,675.1l39.4,135.7c11.5,0,21.4,0,41.7,0l38.9-135.7C1005.6,675.1,912.4,675.1,899,675.1z"/>
		<path class="st12" d="M938.4,810.9c2,0,2.1,0,4.2,0c17.6-17,29.3-46.3,29.3-79.6c0-21-4.6-40.4-12.4-56.1c-26.8,0-53.7,0-60.4,0
			L938.4,810.9z"/>
		<path class="st6" d="M979.8,810.9c-14.4,0-26.5,0-41.6,0c-10.6,0-19.2,8.5-19.3,19.1c24,0,54.3,0,80.2,0
			C999,819.4,990.4,810.9,979.8,810.9z"/>
		<path class="st11" d="M999.1,829.9c-24,0-54.3,0-80.2,0c-0.1,10.6,8.5,19.4,19.3,19.4c14.4,0,26.5,0,41.6,0
			C990.6,849.4,999.3,840.5,999.1,829.9z"/>
		<path class="st6" d="M997.5,903.1c-37.1,0-44.7,0-77,0c-7.6,0-13.7,6.1-13.7,13.7v4.7c53.6,0,50.8,0,104.3,0v-4.7
			C1011.2,909.2,1005,903.1,997.5,903.1z"/>
		<path class="st7" d="M886.4,921.5v69.1c16.2,0,128.9,0,145.2,0v-69.1C1015.3,921.5,902.6,921.5,886.4,921.5z"/>
		<path class="st13" d="M886.4,984.9c5.1,0.4,10.4,0.6,15.7,0.6c56.6,0,102.6-24.5,102.6-54.6c0-3.2-0.5-6.4-1.5-9.4
			c-39.4,0-104.7,0-116.7,0V984.9z"/>
		<path class="st6" d="M1034.1,990.6c-47.1,0-102.9,0-150.1,0c-7,0-12.6,5.6-12.6,12.6v1.3c19.8,0,155.6,0,175.3,0v-1.3
			C1046.7,996.2,1041,990.6,1034.1,990.6z"/>
	</g>
	<g>
		<path class="st14" d="M1083.8,420H921.1c-1.5,0-2.7-1.2-2.7-2.7c0-1.5,1.2-2.7,2.7-2.7h162.7c1.5,0,2.7,1.2,2.7,2.7
			C1086.4,418.8,1085.2,420,1083.8,420z"/>
	</g>
	<g>
		<path class="st14" d="M906,420h-38.9c-1.5,0-2.7-1.2-2.7-2.7c0-1.5,1.2-2.7,2.7-2.7H906c1.5,0,2.7,1.2,2.7,2.7
			C908.7,418.8,907.5,420,906,420z"/>
	</g>
	<g>
		<path class="st14" d="M849.1,420h-29.9c-1.5,0-2.7-1.2-2.7-2.7c0-1.5,1.2-2.7,2.7-2.7h29.9c1.5,0,2.7,1.2,2.7,2.7
			C851.7,418.8,850.5,420,849.1,420z"/>
	</g>
</g>
</svg>
