<?xml version="1.0" encoding="utf-8"?>
<!-- Generator: Adobe Illustrator 24.3.0, SVG Export Plug-In . SVG Version: 6.00 Build 0)  -->
<svg version="1.1" id="Calque_1" xmlns="http://www.w3.org/2000/svg" xmlns:xlink="http://www.w3.org/1999/xlink" x="0px" y="0px"
	 viewBox="0 0 1920 1080" style="enable-background:new 0 0 1920 1080;" xml:space="preserve">
<style type="text/css">
	.st0{opacity:0.5;}
	.st1{fill:#8A2121;}
	.st2{fill:#6C7485;}
	.st3{fill:#F9362D;}
	.st4{fill:#EE7520;}
	.st5{fill:#7A8093;}
	.st6{fill:#9FA8BA;}
	.st7{fill:#CBD5E5;}
	.st8{fill:#BCC7D9;}
</style>
<g class="st0">
	<polygon class="st1" points="1156.1,122.8 1062.2,353.1 867.1,353.1 953.8,122.8 	"/>
	<path class="st2" d="M1071.1,313.1H859.8c-13.9,0-25.1,11.2-25.1,25.1v134.5h261.4V338.2C1096.2,324.3,1085,313.1,1071.1,313.1z
		 M1077.6,362.4H848.5v-10.3c0-11.2,9-20.2,20.2-20.2h188.6c11.2,0,20.2,9,20.2,20.2V362.4z"/>
	<polygon class="st3" points="776.2,122.8 867.1,353.1 1062.2,353.1 973.4,122.8 	"/>
	<g>
		<polygon class="st4" points="903,353.1 810.3,122.8 795.4,122.8 888.1,353.1 		"/>
		<polygon class="st4" points="948.5,353.1 855.8,122.8 841,122.8 933.7,353.1 		"/>
		<polygon class="st4" points="992.3,353.1 899.7,122.8 884.8,122.8 977.4,353.1 		"/>
		<polygon class="st4" points="1039.4,353.1 946.8,122.8 931.9,122.8 1024.5,353.1 		"/>
	</g>
	
		<ellipse transform="matrix(0.7071 -0.7071 0.7071 0.7071 -195.2044 876.1469)" class="st5" cx="960" cy="673.7" rx="283.5" ry="283.5"/>
	<path class="st2" d="M960,390.1c-2.8,0-5.6,0-8.4,0.1c152.7,4.5,275.1,129.6,275.1,283.3s-122.4,278.9-275.1,283.3
		c2.8,0.1,5.6,0.1,8.4,0.1c156.6,0,283.5-126.9,283.5-283.5C1243.5,517.2,1116.6,390.1,960,390.1z"/>
	<ellipse class="st6" cx="960" cy="673.7" rx="231.1" ry="231.1"/>
	<path class="st7" d="M952.7,714.1h70.8v35h-127v-36C918.8,694,974,647.9,974,619c0-14.6-9.5-24.6-25.5-24.6
		c-15.8,0-31.9,6.4-46.1,13.5l-1.3-38.6c95.8-37.9,148.8,22.7,103.5,89.4C993.7,674.9,976.4,693.3,952.7,714.1z"/>
	<g>
		<g>
			<path class="st8" d="M931.7,834.4c9,7.1,11.5,19,11.5,19s-12.2,0.3-21.3-6.9c-9-7.1-11.5-19-11.5-19S922.7,827.4,931.7,834.4z"/>
			<path class="st8" d="M920.8,852.9c10.9-3.8,22.4,0.4,22.4,0.4s-6.2,10.4-17.2,14.1c-10.9,3.8-22.4-0.4-22.4-0.4
				S909.8,856.6,920.8,852.9z"/>
		</g>
		<g>
			<path class="st8" d="M896.5,824.8c8,8.3,8.7,20.2,8.7,20.2s-12.2-1.4-20.1-9.7c-8-8.3-8.7-20.2-8.7-20.2S888.5,816.5,896.5,824.8
				z"/>
			<path class="st8" d="M883,841.6c11.3-2.3,22.1,3.4,22.1,3.4s-7.6,9.4-19,11.7c-11.3,2.3-22.1-3.4-22.1-3.4S871.7,843.9,883,841.6
				z"/>
			<path class="st8" d="M868.6,811.1c6.5,9.4,5.3,21.4,5.3,21.4s-11.8-3.3-18.3-12.6c-6.5-9.4-5.3-21.4-5.3-21.4
				S862.1,801.8,868.6,811.1z"/>
			<path class="st8" d="M852.7,825.6c11.6-0.5,21.3,6.9,21.3,6.9s-9,8.1-20.6,8.7c-11.6,0.5-21.3-6.9-21.3-6.9
				S841.1,826.1,852.7,825.6z"/>
			<path class="st8" d="M842.8,790.2c4.1,10.7-0.1,22-0.1,22s-10.7-6-14.6-16.7c-4.1-10.7,0.1-22,0.1-22S838.7,779.5,842.8,790.2z"
				/>
			<path class="st8" d="M823.7,800.5c11.3,2.3,19,11.7,19,11.7s-10.8,5.7-22.1,3.4s-19-11.7-19-11.7S812.3,798.2,823.7,800.5z"/>
			<path class="st8" d="M823.2,766c1.4,11.3-5.3,21.4-5.3,21.4s-8.9-8.3-10.3-19.6c-1.4-11.3,5.3-21.4,5.3-21.4
				S821.8,754.7,823.2,766z"/>
			<path class="st8" d="M802.2,771.6c10.4,4.8,15.7,15.8,15.7,15.8s-11.8,3.1-22.3-1.8s-15.7-15.8-15.7-15.8
				S791.7,766.6,802.2,771.6z"/>
		</g>
		<g>
			<path class="st8" d="M806.4,735.5c-1,11.3-9.5,19.9-9.5,19.9s-7.1-9.8-6.1-21.1c1-11.3,9.5-19.9,9.5-19.9
				S807.4,724.1,806.4,735.5z"/>
			<path class="st8" d="M784.7,736.9c9.3,6.7,12.1,18.6,12.1,18.6s-12.2,0.6-21.5-6.1c-9.3-6.7-12.1-18.6-12.1-18.6
				S775.4,730,784.7,736.9z"/>
			<path class="st8" d="M797.7,706.3c-2.8,11.1-12.7,18.2-12.7,18.2s-5.3-10.8-2.7-21.9c2.8-11.1,12.7-18.2,12.7-18.2
				S800.5,695.4,797.7,706.3z"/>
			<path class="st8" d="M776.1,704.4c8,8.1,8.9,20.2,8.9,20.2s-12.2-1.3-20.2-9.4c-8-8.1-8.9-20.2-8.9-20.2S768.1,696.1,776.1,704.4
				z"/>
			<path class="st8" d="M796.8,674c-5.5,10.1-16.8,14.6-16.8,14.6s-2.5-11.8,2.8-21.9c5.5-10.1,16.8-14.6,16.8-14.6
				S802.2,663.9,796.8,674z"/>
			<path class="st8" d="M776.3,666.9c5.9,9.8,3.7,21.8,3.7,21.8s-11.6-4.1-17.3-13.9c-5.9-9.8-3.7-21.8-3.7-21.8
				S770.5,656.9,776.3,666.9z"/>
			<path class="st8" d="M802.5,641.3c-7.6,8.5-19.7,10.3-19.7,10.3s0.4-12.1,8-20.6c7.6-8.5,19.7-10.3,19.7-10.3
				S810.3,632.7,802.5,641.3z"/>
			<path class="st8" d="M784.3,629.6c3.3,10.9-1.5,22-1.5,22s-10.2-6.6-13.5-17.6c-3.3-10.9,1.5-22,1.5-22S781,618.6,784.3,629.6z"
				/>
		</g>
		<path class="st8" d="M814.4,614.3c-9.4,6.6-21.6,5.6-21.6,5.6s3.1-11.7,12.6-18.2c9.4-6.6,21.6-5.6,21.6-5.6
			S823.9,607.8,814.4,614.3z"/>
		<path class="st8" d="M799.4,598.9c0.6,11.3-6.6,21-6.6,21s-8.4-8.8-9-20.1c-0.6-11.3,6.6-21,6.6-21S798.7,587.6,799.4,598.9z"/>
		<path class="st8" d="M829.3,590c-10.4,5-22.3,2.2-22.3,2.2s5-11.1,15.3-16c10.4-5,22.3-2.2,22.3-2.2S839.6,585,829.3,590z"/>
		<path class="st8" d="M816.9,572.4c-1.1,11.3-9.9,19.7-9.9,19.7s-6.9-9.9-5.7-21.3c1.1-11.3,9.9-19.7,9.9-19.7
			S818.1,561.1,816.9,572.4z"/>
		<g>
			<path class="st8" d="M994.5,832.8c-9,7.1-11.5,19-11.5,19s12.2,0.3,21.3-6.9c9-7.1,11.5-19,11.5-19S1003.5,825.8,994.5,832.8z"/>
			<path class="st8" d="M1005.4,851.4c-10.9-3.8-22.4,0.4-22.4,0.4s6.2,10.4,17.2,14.1c10.9,3.8,22.4-0.4,22.4-0.4
				S1016.3,855.1,1005.4,851.4z"/>
		</g>
		<g>
			<path class="st8" d="M1025.3,824.8c-8,8.3-8.7,20.2-8.7,20.2s12.2-1.4,20.1-9.7c8-8.3,8.7-20.2,8.7-20.2
				S1033.2,816.5,1025.3,824.8z"/>
			<path class="st8" d="M1038.7,841.6c-11.3-2.3-22.1,3.4-22.1,3.4s7.6,9.4,19,11.7c11.3,2.3,22.1-3.4,22.1-3.4
				S1050,843.9,1038.7,841.6z"/>
			<path class="st8" d="M1053,809.9c-6.5,9.4-5.3,21.4-5.3,21.4s11.8-3.3,18.3-12.6c6.5-9.4,5.3-21.4,5.3-21.4
				S1059.5,800.5,1053,809.9z"/>
			<path class="st8" d="M1069,824.4c-11.6-0.5-21.3,6.9-21.3,6.9s9,8.1,20.6,8.7c11.6,0.5,21.3-6.9,21.3-6.9
				S1080.5,824.9,1069,824.4z"/>
			<path class="st8" d="M1078,789.6c-4.1,10.7,0.1,22,0.1,22s10.7-6,14.6-16.7c4.1-10.7-0.1-22-0.1-22S1082.1,778.9,1078,789.6z"/>
			<path class="st8" d="M1097.1,799.9c-11.3,2.3-19,11.7-19,11.7s10.8,5.7,22.1,3.4s19-11.7,19-11.7S1108.4,797.6,1097.1,799.9z"/>
			<path class="st8" d="M1098.7,763.7c-1.4,11.3,5.3,21.4,5.3,21.4s8.9-8.3,10.3-19.6c1.4-11.3-5.3-21.4-5.3-21.4
				S1100.1,752.4,1098.7,763.7z"/>
			<path class="st8" d="M1119.7,769.3c-10.4,4.8-15.7,15.8-15.7,15.8s11.8,3.1,22.3-1.8c10.4-4.8,15.7-15.8,15.7-15.8
				S1130.2,764.5,1119.7,769.3z"/>
		</g>
		<g>
			<path class="st8" d="M1113.6,735c1,11.3,9.5,19.9,9.5,19.9s7-9.8,6.1-21.1c-1-11.3-9.5-19.9-9.5-19.9S1112.6,723.5,1113.6,735z"
				/>
			<path class="st8" d="M1135.3,736.2c-9.3,6.7-12.1,18.6-12.1,18.6s12.2,0.6,21.5-6.1c9.3-6.7,12.1-18.6,12.1-18.6
				S1144.6,729.5,1135.3,736.2z"/>
			<path class="st8" d="M1122.2,705.8c2.8,11.1,12.7,18.2,12.7,18.2s5.3-10.8,2.7-21.9c-2.8-11.1-12.7-18.2-12.7-18.2
				S1119.5,694.7,1122.2,705.8z"/>
			<path class="st8" d="M1143.8,703.8c-8,8.1-8.9,20.2-8.9,20.2s12.2-1.3,20.2-9.4c8-8.1,8.9-20.2,8.9-20.2
				S1151.9,695.6,1143.8,703.8z"/>
			<path class="st8" d="M1123.1,674.4c5.5,10.1,16.8,14.6,16.8,14.6s2.5-11.8-2.8-21.9c-5.5-10.1-16.8-14.6-16.8-14.6
				S1117.6,664.3,1123.1,674.4z"/>
			<path class="st8" d="M1143.5,667.2c-5.9,9.8-3.7,21.8-3.7,21.8s11.6-4.1,17.3-13.9c5.9-9.8,3.7-21.8,3.7-21.8
				S1149.3,657.4,1143.5,667.2z"/>
			<path class="st8" d="M1116.9,641.6c7.6,8.5,19.7,10.3,19.7,10.3s-0.4-12.1-8-20.6c-7.6-8.5-19.7-10.3-19.7-10.3
				S1109.3,633.1,1116.9,641.6z"/>
			<path class="st8" d="M1135.1,629.9c-3.3,10.9,1.5,22,1.5,22s10.2-6.6,13.5-17.6s-1.5-22-1.5-22S1138.5,619.1,1135.1,629.9z"/>
		</g>
		<path class="st8" d="M1105.5,615.2c9.4,6.6,21.6,5.6,21.6,5.6s-3.1-11.7-12.6-18.2c-9.4-6.6-21.6-5.6-21.6-5.6
			S1095.9,608.7,1105.5,615.2z"/>
		<path class="st8" d="M1120.5,599.8c-0.6,11.3,6.6,21,6.6,21s8.4-8.8,9-20.1c0.6-11.3-6.6-21-6.6-21S1121.1,588.4,1120.5,599.8z"/>
		<path class="st8" d="M1089.7,591.1c10.4,5,22.3,2.2,22.3,2.2s-5-11.1-15.3-16c-10.4-5-22.3-2.2-22.3-2.2S1079.4,586,1089.7,591.1z
			"/>
		<path class="st8" d="M1102.1,573.4c1.1,11.3,9.9,19.7,9.9,19.7s6.9-9.9,5.7-21.3c-1.1-11.3-9.9-19.7-9.9-19.7
			S1100.9,562.1,1102.1,573.4z"/>
		<path class="st8" d="M1081.4,556.4c-0.5,0.5-1,1-1.7,1.4c-0.1,0.1-0.4,0.3-0.5,0.4c36.3,30.9,59.2,75.6,59.2,125.2
			c0,93-80.2,168.7-178.6,168.7c-98.5,0-178.6-75.7-178.6-168.7c0-47.5,20.9-90.4,54.4-121c-0.9-0.3-1.9-0.6-2.9-1.1
			c-33.6,31.1-54.4,74.5-54.4,122.2c0,94.4,81.5,171.5,181.5,171.5s181.5-76.9,181.5-171.5C1141.3,633,1118.1,587.7,1081.4,556.4z"
			/>
		<path class="st8" d="M853.3,568.5c-11.3,2.4-22.1-3.2-22.1-3.2s7.5-9.5,18.8-12c11.3-2.4,22.1,3.2,22.1,3.2S864.5,566,853.3,568.5
			z"/>
		<path class="st8" d="M845.7,548.5c-3.9,10.7-14.5,16.8-14.5,16.8s-4.2-11.3-0.4-22c3.9-10.7,14.5-16.8,14.5-16.8
			S849.5,537.8,845.7,548.5z"/>
		<path class="st8" d="M1066.9,568.5c11.3,2.4,22.1-3.2,22.1-3.2s-7.5-9.5-18.8-12c-11.3-2.4-22.1,3.2-22.1,3.2
			S1055.6,566,1066.9,568.5z"/>
		<path class="st8" d="M1074.6,548.5c3.9,10.7,14.5,16.8,14.5,16.8s4.2-11.3,0.4-22c-3.9-10.7-14.5-16.8-14.5-16.8
			S1070.7,537.8,1074.6,548.5z"/>
	</g>
</g>
</svg>
