<?xml version="1.0" encoding="utf-8"?>
<!-- Generator: Adobe Illustrator 24.3.0, SVG Export Plug-In . SVG Version: 6.00 Build 0)  -->
<svg version="1.1" id="Calque_1" xmlns="http://www.w3.org/2000/svg" xmlns:xlink="http://www.w3.org/1999/xlink" x="0px" y="0px"
	 viewBox="0 0 1920 1080" style="enable-background:new 0 0 1920 1080;" xml:space="preserve">
<style type="text/css">
	.st0{opacity:0.75;}
	.st1{fill:#8A2121;}
	.st2{fill:#6C7485;}
	.st3{fill:#F9362D;}
	.st4{fill:#EE7520;}
	.st5{fill:#7A8093;}
	.st6{fill:#9FA8BA;}
	.st7{fill:#CBD5E5;}
	.st8{fill:#BCC7D9;}
</style>
<g class="st0">
	<polygon class="st1" points="1141.1,141.7 1067.3,322.6 914,322.6 982.1,141.7 	"/>
	<path class="st2" d="M1074.3,291.2h-166c-10.9,0-19.7,8.8-19.7,19.7v105.7H1094V310.9C1094,300,1085.2,291.2,1074.3,291.2z
		 M1079.4,329.9h-180v-8.1c0-8.8,7.1-15.9,15.9-15.9h148.2c8.8,0,15.9,7.1,15.9,15.9V329.9z"/>
	<polygon class="st3" points="842.6,141.7 914,322.6 1067.3,322.6 997.5,141.7 	"/>
	<g>
		<polygon class="st4" points="942.2,322.6 869.4,141.7 857.7,141.7 930.5,322.6 		"/>
		<polygon class="st4" points="978,322.6 905.1,141.7 893.5,141.7 966.3,322.6 		"/>
		<polygon class="st4" points="1012.4,322.6 939.6,141.7 927.9,141.7 1000.7,322.6 		"/>
		<polygon class="st4" points="1049.4,322.6 976.6,141.7 964.9,141.7 1037.7,322.6 		"/>
	</g>
	
		<ellipse transform="matrix(0.7071 -0.7071 0.7071 0.7071 -117.1349 866.1632)" class="st5" cx="987" cy="574.5" rx="222.7" ry="222.7"/>
	<path class="st2" d="M987,351.7c-2.2,0-4.4,0-6.6,0.1c120,3.5,216.1,101.8,216.1,222.6c0,120.8-96.2,219.1-216.1,222.6
		c2.2,0.1,4.4,0.1,6.6,0.1c123,0,222.7-99.7,222.7-222.7C1209.7,451.5,1110,351.7,987,351.7z"/>
	
		<ellipse transform="matrix(0.1299 -0.9915 0.9915 0.1299 289.1361 1478.4496)" class="st6" cx="987" cy="574.5" rx="181.6" ry="181.6"/>
	<path class="st7" d="M981.3,606.2h55.6v27.5h-99.8v-28.3c17.5-15,60.9-51.2,60.9-73.9c0-11.5-7.5-19.3-20-19.3
		c-12.4,0-25.1,5-36.2,10.6l-1-30.3c75.3-29.8,116.9,17.8,81.3,70.2C1013.5,575.4,999.9,589.9,981.3,606.2z"/>
	<g>
		<g>
			<path class="st8" d="M964.8,700.7c7.1,5.6,9,14.9,9,14.9s-9.6,0.2-16.7-5.4c-7.1-5.6-9-14.9-9-14.9S957.7,695.2,964.8,700.7z"/>
			<path class="st8" d="M956.2,715.3c8.6-3,17.6,0.3,17.6,0.3s-4.9,8.2-13.5,11.1c-8.6,3-17.6-0.3-17.6-0.3S947.6,718.2,956.2,715.3
				z"/>
		</g>
		<g>
			<path class="st8" d="M937.1,693.2c6.3,6.5,6.8,15.9,6.8,15.9s-9.6-1.1-15.8-7.6c-6.3-6.5-6.8-15.9-6.8-15.9
				S930.8,686.7,937.1,693.2z"/>
			<path class="st8" d="M926.5,706.4c8.9-1.8,17.4,2.7,17.4,2.7s-6,7.4-14.9,9.2c-8.9,1.8-17.4-2.7-17.4-2.7
				S917.6,708.2,926.5,706.4z"/>
			<path class="st8" d="M915.2,682.4c5.1,7.4,4.2,16.8,4.2,16.8s-9.3-2.6-14.4-9.9c-5.1-7.4-4.2-16.8-4.2-16.8
				S910.1,675.1,915.2,682.4z"/>
			<path class="st8" d="M902.7,693.8c9.1-0.4,16.7,5.4,16.7,5.4s-7.1,6.4-16.2,6.8c-9.1,0.4-16.7-5.4-16.7-5.4
				S893.6,694.2,902.7,693.8z"/>
			<path class="st8" d="M894.9,666c3.2,8.4-0.1,17.3-0.1,17.3s-8.4-4.7-11.5-13.1c-3.2-8.4,0.1-17.3,0.1-17.3S891.7,657.6,894.9,666
				z"/>
			<path class="st8" d="M879.9,674.1c8.9,1.8,14.9,9.2,14.9,9.2s-8.5,4.5-17.4,2.7c-8.9-1.8-14.9-9.2-14.9-9.2
				S871,672.3,879.9,674.1z"/>
			<path class="st8" d="M879.5,647c1.1,8.9-4.2,16.8-4.2,16.8s-7-6.5-8.1-15.4c-1.1-8.9,4.2-16.8,4.2-16.8S878.4,638.1,879.5,647z"
				/>
			<path class="st8" d="M863,651.4c8.2,3.8,12.3,12.4,12.3,12.4s-9.3,2.4-17.5-1.4c-8.2-3.8-12.3-12.4-12.3-12.4
				S854.8,647.5,863,651.4z"/>
		</g>
		<g>
			<path class="st8" d="M866.3,623c-0.8,8.9-7.5,15.6-7.5,15.6s-5.6-7.7-4.8-16.6c0.8-8.9,7.5-15.6,7.5-15.6S867.1,614.1,866.3,623z
				"/>
			<path class="st8" d="M849.3,624.1c7.3,5.3,9.5,14.6,9.5,14.6s-9.6,0.5-16.9-4.8c-7.3-5.3-9.5-14.6-9.5-14.6
				S842,618.7,849.3,624.1z"/>
			<path class="st8" d="M859.5,600.1c-2.2,8.7-10,14.3-10,14.3s-4.2-8.5-2.1-17.2c2.2-8.7,10-14.3,10-14.3S861.7,591.5,859.5,600.1z
				"/>
			<path class="st8" d="M842.5,598.6c6.3,6.4,7,15.9,7,15.9s-9.6-1-15.9-7.4c-6.3-6.4-7-15.9-7-15.9S836.2,592.1,842.5,598.6z"/>
			<path class="st8" d="M858.8,574.7c-4.3,7.9-13.2,11.5-13.2,11.5s-2-9.3,2.2-17.2c4.3-7.9,13.2-11.5,13.2-11.5
				S863,566.8,858.8,574.7z"/>
			<path class="st8" d="M842.7,569.1c4.6,7.7,2.9,17.1,2.9,17.1s-9.1-3.2-13.6-10.9c-4.6-7.7-2.9-17.1-2.9-17.1
				S838.1,561.3,842.7,569.1z"/>
			<path class="st8" d="M863.3,549c-6,6.7-15.5,8.1-15.5,8.1s0.3-9.5,6.3-16.2c6-6.7,15.5-8.1,15.5-8.1S869.4,542.3,863.3,549z"/>
			<path class="st8" d="M849,539.8c2.6,8.6-1.2,17.3-1.2,17.3s-8-5.2-10.6-13.8c-2.6-8.6,1.2-17.3,1.2-17.3S846.4,531.2,849,539.8z"
				/>
		</g>
		<path class="st8" d="M872.6,527.8c-7.4,5.2-17,4.4-17,4.4s2.4-9.2,9.9-14.3c7.4-5.2,17-4.4,17-4.4S880.1,522.7,872.6,527.8z"/>
		<path class="st8" d="M860.8,515.7c0.5,8.9-5.2,16.5-5.2,16.5s-6.6-6.9-7.1-15.8c-0.5-8.9,5.2-16.5,5.2-16.5
			S860.3,506.8,860.8,515.7z"/>
		<path class="st8" d="M884.3,508.7c-8.2,3.9-17.5,1.7-17.5,1.7s3.9-8.7,12-12.6c8.2-3.9,17.5-1.7,17.5-1.7S892.4,504.8,884.3,508.7
			z"/>
		<path class="st8" d="M874.6,494.9c-0.9,8.9-7.8,15.5-7.8,15.5s-5.4-7.8-4.5-16.7c0.9-8.9,7.8-15.5,7.8-15.5S875.5,486,874.6,494.9
			z"/>
		<g>
			<path class="st8" d="M1014.1,699.5c-7.1,5.6-9,14.9-9,14.9s9.6,0.2,16.7-5.4c7.1-5.6,9-14.9,9-14.9S1021.2,694,1014.1,699.5z"/>
			<path class="st8" d="M1022.7,714.1c-8.6-3-17.6,0.3-17.6,0.3s4.9,8.2,13.5,11.1c8.6,3,17.6-0.3,17.6-0.3S1031.2,717,1022.7,714.1
				z"/>
		</g>
		<g>
			<path class="st8" d="M1038.3,693.2c-6.3,6.5-6.8,15.9-6.8,15.9s9.6-1.1,15.8-7.6c6.3-6.5,6.8-15.9,6.8-15.9
				S1044.5,686.7,1038.3,693.2z"/>
			<path class="st8" d="M1048.8,706.4c-8.9-1.8-17.4,2.7-17.4,2.7s6,7.4,14.9,9.2c8.9,1.8,17.4-2.7,17.4-2.7
				S1057.7,708.2,1048.8,706.4z"/>
			<path class="st8" d="M1060.1,681.5c-5.1,7.4-4.2,16.8-4.2,16.8s9.3-2.6,14.4-9.9c5.1-7.4,4.2-16.8,4.2-16.8
				S1065.2,674.1,1060.1,681.5z"/>
			<path class="st8" d="M1072.6,692.9c-9.1-0.4-16.7,5.4-16.7,5.4s7.1,6.4,16.2,6.8c9.1,0.4,16.7-5.4,16.7-5.4
				S1081.7,693.3,1072.6,692.9z"/>
			<path class="st8" d="M1079.7,665.5c-3.2,8.4,0.1,17.3,0.1,17.3s8.4-4.7,11.5-13.1c3.2-8.4-0.1-17.3-0.1-17.3
				S1082.9,657.1,1079.7,665.5z"/>
			<path class="st8" d="M1094.7,673.6c-8.9,1.8-14.9,9.2-14.9,9.2s8.5,4.5,17.4,2.7c8.9-1.8,14.9-9.2,14.9-9.2
				S1103.6,671.8,1094.7,673.6z"/>
			<path class="st8" d="M1096,645.2c-1.1,8.9,4.2,16.8,4.2,16.8s7-6.5,8.1-15.4c1.1-8.9-4.2-16.8-4.2-16.8S1097.1,636.3,1096,645.2z
				"/>
			<path class="st8" d="M1112.5,649.6c-8.2,3.8-12.3,12.4-12.3,12.4s9.3,2.4,17.5-1.4c8.2-3.8,12.3-12.4,12.3-12.4
				S1120.7,645.8,1112.5,649.6z"/>
		</g>
		<g>
			<path class="st8" d="M1107.7,622.6c0.8,8.9,7.5,15.6,7.5,15.6s5.5-7.7,4.8-16.6c-0.8-8.9-7.5-15.6-7.5-15.6
				S1106.9,613.6,1107.7,622.6z"/>
			<path class="st8" d="M1124.7,623.6c-7.3,5.3-9.5,14.6-9.5,14.6s9.6,0.5,16.9-4.8c7.3-5.3,9.5-14.6,9.5-14.6
				S1132,618.3,1124.7,623.6z"/>
			<path class="st8" d="M1114.4,599.7c2.2,8.7,10,14.3,10,14.3s4.2-8.5,2.1-17.2c-2.2-8.7-10-14.3-10-14.3S1112.3,591,1114.4,599.7z
				"/>
			<path class="st8" d="M1131.4,598.1c-6.3,6.4-7,15.9-7,15.9s9.6-1,15.9-7.4c6.3-6.4,7-15.9,7-15.9S1137.8,591.7,1131.4,598.1z"/>
			<path class="st8" d="M1115.1,575c4.3,7.9,13.2,11.5,13.2,11.5s2-9.3-2.2-17.2c-4.3-7.9-13.2-11.5-13.2-11.5
				S1110.8,567.1,1115.1,575z"/>
			<path class="st8" d="M1131.2,569.4c-4.6,7.7-2.9,17.1-2.9,17.1s9.1-3.2,13.6-10.9c4.6-7.7,2.9-17.1,2.9-17.1
				S1135.7,561.7,1131.2,569.4z"/>
			<path class="st8" d="M1110.3,549.3c6,6.7,15.5,8.1,15.5,8.1s-0.3-9.5-6.3-16.2c-6-6.7-15.5-8.1-15.5-8.1
				S1104.3,542.6,1110.3,549.3z"/>
			<path class="st8" d="M1124.6,540.1c-2.6,8.6,1.2,17.3,1.2,17.3s8-5.2,10.6-13.8c2.6-8.6-1.2-17.3-1.2-17.3
				S1127.2,531.6,1124.6,540.1z"/>
		</g>
		<path class="st8" d="M1101.3,528.5c7.4,5.2,17,4.4,17,4.4s-2.4-9.2-9.9-14.3c-7.4-5.2-17-4.4-17-4.4S1093.8,523.4,1101.3,528.5z"
			/>
		<path class="st8" d="M1113.1,516.4c-0.5,8.9,5.2,16.5,5.2,16.5s6.6-6.9,7.1-15.8c0.5-8.9-5.2-16.5-5.2-16.5
			S1113.6,507.5,1113.1,516.4z"/>
		<path class="st8" d="M1088.9,509.6c8.2,3.9,17.5,1.7,17.5,1.7s-3.9-8.7-12-12.6c-8.2-3.9-17.5-1.7-17.5-1.7
			S1080.8,505.6,1088.9,509.6z"/>
		<path class="st8" d="M1098.6,495.7c0.9,8.9,7.8,15.5,7.8,15.5s5.4-7.8,4.5-16.7c-0.9-8.9-7.8-15.5-7.8-15.5
			S1097.7,486.8,1098.6,495.7z"/>
		<path class="st8" d="M1082.4,482.3c-0.4,0.4-0.8,0.8-1.3,1.1c-0.1,0.1-0.3,0.2-0.4,0.3c28.5,24.3,46.5,59.4,46.5,98.4
			c0,73.1-63,132.5-140.3,132.5c-77.4,0-140.3-59.5-140.3-132.5c0-37.3,16.4-71,42.7-95.1c-0.7-0.2-1.5-0.5-2.3-0.9
			c-26.4,24.4-42.7,58.5-42.7,96c0,74.2,64,134.7,142.6,134.7c78.6,0,142.6-60.4,142.6-134.7
			C1129.4,542.5,1111.2,506.9,1082.4,482.3z"/>
		<path class="st8" d="M903.2,491.8c-8.9,1.9-17.4-2.5-17.4-2.5s5.9-7.5,14.8-9.4c8.9-1.9,17.4,2.5,17.4,2.5S912,489.9,903.2,491.8z
			"/>
		<path class="st8" d="M897.2,476.1c-3.1,8.4-11.4,13.2-11.4,13.2s-3.3-8.9-0.3-17.3c3.1-8.4,11.4-13.2,11.4-13.2
			S900.2,467.7,897.2,476.1z"/>
		<path class="st8" d="M1071,491.8c8.9,1.9,17.4-2.5,17.4-2.5s-5.9-7.5-14.8-9.4c-8.9-1.9-17.4,2.5-17.4,2.5
			S1062.1,489.9,1071,491.8z"/>
		<path class="st8" d="M1077,476.1c3.1,8.4,11.4,13.2,11.4,13.2s3.3-8.9,0.3-17.3c-3.1-8.4-11.4-13.2-11.4-13.2
			S1074,467.7,1077,476.1z"/>
	</g>
</g>
</svg>
