<?xml version="1.0" encoding="utf-8"?>
<!-- Generator: Adobe Illustrator 24.3.0, SVG Export Plug-In . SVG Version: 6.00 Build 0)  -->
<svg version="1.1" id="Calque_1" xmlns="http://www.w3.org/2000/svg" xmlns:xlink="http://www.w3.org/1999/xlink" x="0px" y="0px"
	 viewBox="0 0 1920 1080" style="enable-background:new 0 0 1920 1080;" xml:space="preserve">
<style type="text/css">
	.st0{opacity:0.5;}
	.st1{fill:#8F2424;}
	.st2{fill:#C95717;}
	.st3{fill:#F9362D;}
	.st4{fill:#7F1711;}
	.st5{fill:#FAB73E;}
	.st6{fill:#EB7708;}
	.st7{fill:#F49954;}
	.st8{opacity:0.69;}
	.st9{fill:#F9B24C;}
</style>
<g class="st0">
	<polygon class="st1" points="1156.1,122.9 1062.2,353 867.1,353 953.8,122.9 	"/>
	<path class="st2" d="M1071.1,313.1H859.9c-13.8,0-25.1,11.2-25.1,25.1v134.5h261.4V338.2C1096.2,324.3,1084.9,313.1,1071.1,313.1z
		 M1077.6,362.3h-229v-10.3c0-11.2,9.1-20.2,20.2-20.2h188.6c11.2,0,20.2,9.1,20.2,20.2V362.3z"/>
	<polygon class="st3" points="776.3,122.9 867.1,353 1062.2,353 973.4,122.9 	"/>
	<g>
		<polygon class="st4" points="910.3,353 812.6,122.9 801.3,122.9 899.1,353 		"/>
		<polygon class="st4" points="946.1,353 848.5,122.9 837.1,122.9 934.9,353 		"/>
		<polygon class="st4" points="987,353 889.3,122.9 878.1,122.9 975.7,353 		"/>
		<polygon class="st4" points="1026.3,353 928.6,122.9 917.3,122.9 1015.1,353 		"/>
	</g>
	
		<ellipse transform="matrix(0.7071 -0.7071 0.7071 0.7071 -195.0559 876.0856)" class="st5" cx="960" cy="673.5" rx="283.5" ry="283.5"/>
	<path class="st6" d="M1156,468.8c48.7,50.9,78.6,120,78.6,196c0,156.5-126.9,283.5-283.5,283.5c-76,0-145.1-29.9-196-78.6
		c51.6,53.9,124.3,87.5,204.7,87.5c156.5,0,283.5-126.9,283.5-283.5C1243.4,593,1209.8,520.4,1156,468.8z"/>
	
		<ellipse transform="matrix(0.7071 -0.7071 0.7071 0.7071 -195.0559 876.0856)" class="st7" cx="960" cy="673.5" rx="231.1" ry="231.1"/>
	<g class="st8">
		<g>
			<path class="st9" d="M937.2,836.9c9,7.1,11.4,18.9,11.4,18.9s-12.2,0.3-21.2-6.8c-9-7.1-11.4-18.9-11.4-18.9
				S928.2,829.8,937.2,836.9z"/>
			<path class="st9" d="M926.3,855.4c10.9-3.8,22.4,0.4,22.4,0.4s-6.2,10.4-17.2,14.1c-10.9,3.8-22.4-0.4-22.4-0.4
				S915.4,859.2,926.3,855.4z"/>
		</g>
		<g>
			<path class="st9" d="M901.9,827.4c8,8.3,8.7,20.3,8.7,20.3s-12.1-1.4-20.1-9.6c-8-8.3-8.7-20.3-8.7-20.3S894,819.1,901.9,827.4z"
				/>
			<path class="st9" d="M888.5,844.2c11.3-2.3,22.1,3.5,22.1,3.5s-7.6,9.4-18.9,11.7s-22.1-3.5-22.1-3.5S877.2,846.4,888.5,844.2z"
				/>
			<path class="st9" d="M874.2,813.7c6.5,9.4,5.3,21.4,5.3,21.4s-11.8-3.2-18.3-12.7c-6.5-9.4-5.3-21.4-5.3-21.4
				S867.7,804.3,874.2,813.7z"/>
			<path class="st9" d="M858.3,828.1c11.5-0.5,21.2,6.9,21.2,6.9s-9,8.2-20.6,8.6c-11.5,0.5-21.2-6.9-21.2-6.9
				S846.7,828.6,858.3,828.1z"/>
			<path class="st9" d="M848.2,792.7c4,10.7-0.1,22-0.1,22s-10.7-6-14.7-16.6c-4-10.7,0.1-22,0.1-22S844.3,782.1,848.2,792.7z"/>
			<path class="st9" d="M829.2,803c11.3,2.3,18.9,11.7,18.9,11.7s-10.8,5.8-22.1,3.5c-11.3-2.3-18.9-11.7-18.9-11.7
				S817.9,800.7,829.2,803z"/>
			<path class="st9" d="M828.7,768.5c1.4,11.3-5.3,21.4-5.3,21.4s-8.9-8.3-10.3-19.6s5.3-21.4,5.3-21.4S827.3,757.2,828.7,768.5z"/>
			<path class="st9" d="M807.7,774.1c10.5,4.8,15.6,15.8,15.6,15.8s-11.8,3-22.3-1.8c-10.5-4.8-15.6-15.8-15.6-15.8
				S797.3,769.2,807.7,774.1z"/>
		</g>
		<g>
			<path class="st9" d="M811.9,738c-0.9,11.3-9.6,19.9-9.6,19.9s-7-9.8-6.1-21.1s9.6-19.9,9.6-19.9S812.9,726.7,811.9,738z"/>
			<path class="st9" d="M790.3,739.4c9.3,6.8,12.1,18.5,12.1,18.5s-12.2,0.7-21.5-6.1c-9.3-6.8-12.1-18.5-12.1-18.5
				S781,732.6,790.3,739.4z"/>
			<path class="st9" d="M803.3,708.9c-2.8,11.1-12.7,18.1-12.7,18.1s-5.3-10.8-2.6-21.9c2.8-11.1,12.7-18.1,12.7-18.1
				S806.1,697.9,803.3,708.9z"/>
			<path class="st9" d="M781.7,706.9c8.1,8.2,9,20.2,9,20.2s-12.1-1.3-20.2-9.4c-8.1-8.2-9-20.2-9-20.2S773.6,698.7,781.7,706.9z"/>
			<path class="st9" d="M802.4,676.6c-5.4,10-16.7,14.6-16.7,14.6s-2.5-11.8,2.8-21.9c5.4-10,16.7-14.6,16.7-14.6
				S807.8,666.5,802.4,676.6z"/>
			<path class="st9" d="M781.9,669.4c5.8,9.8,3.7,21.7,3.7,21.7s-11.5-4.1-17.4-13.9c-5.9-9.8-3.8-21.7-3.8-21.7
				S776.1,659.6,781.9,669.4z"/>
			<path class="st9" d="M808.2,643.8c-7.6,8.5-19.8,10.3-19.8,10.3s0.3-12,8-20.5c7.6-8.5,19.8-10.3,19.8-10.3
				S815.8,635.3,808.2,643.8z"/>
			<path class="st9" d="M789.9,632.2c3.3,10.9-1.6,22-1.6,22s-10.3-6.6-13.5-17.6c-3.2-10.9,1.6-22,1.6-22S786.7,621.2,789.9,632.2z
				"/>
		</g>
		<path class="st9" d="M820,616.9c-9.4,6.6-21.7,5.5-21.7,5.5s3.1-11.6,12.6-18.2c9.4-6.6,21.7-5.5,21.7-5.5S829.4,610.3,820,616.9z
			"/>
		<path class="st9" d="M805,601.5c0.7,11.4-6.6,21-6.6,21s-8.4-8.8-9.1-20.1c-0.7-11.4,6.6-21,6.6-21S804.3,590.1,805,601.5z"/>
		<path class="st9" d="M834.8,592.6c-10.4,5-22.3,2.2-22.3,2.2s4.9-11,15.3-16c10.4-5,22.3-2.2,22.3-2.2S845.2,587.6,834.8,592.6z"
			/>
		<path class="st9" d="M822.5,575c-1.2,11.3-9.9,19.8-9.9,19.8s-6.9-9.9-5.8-21.2s9.9-19.8,9.9-19.8S823.6,563.7,822.5,575z"/>
		<g>
			<path class="st9" d="M1000,835.5c-9,7.1-11.4,18.9-11.4,18.9s12.2,0.3,21.2-6.8c9-7.1,11.4-18.9,11.4-18.9S1009,828.3,1000,835.5
				z"/>
			<path class="st9" d="M1010.9,853.9c-10.9-3.8-22.4,0.4-22.4,0.4s6.2,10.4,17.2,14.1c10.9,3.8,22.4-0.4,22.4-0.4
				S1021.8,857.6,1010.9,853.9z"/>
		</g>
		<g>
			<path class="st9" d="M1030.8,827.4c-8,8.3-8.7,20.3-8.7,20.3s12.1-1.4,20.1-9.6c8-8.3,8.7-20.3,8.7-20.3
				S1038.8,819.1,1030.8,827.4z"/>
			<path class="st9" d="M1044.2,844.2c-11.3-2.3-22.1,3.5-22.1,3.5s7.6,9.4,18.9,11.7s22.1-3.5,22.1-3.5S1055.5,846.4,1044.2,844.2z
				"/>
			<path class="st9" d="M1058.5,812.5c-6.5,9.4-5.3,21.4-5.3,21.4s11.8-3.2,18.3-12.7c6.5-9.4,5.3-21.4,5.3-21.4
				S1065,803.1,1058.5,812.5z"/>
			<path class="st9" d="M1074.5,827c-11.5-0.5-21.2,6.9-21.2,6.9s9,8.2,20.6,8.6c11.5,0.5,21.2-6.9,21.2-6.9S1086,827.5,1074.5,827z
				"/>
			<path class="st9" d="M1083.6,792.1c-4,10.7,0.1,22,0.1,22s10.7-6,14.7-16.6c4-10.7-0.1-22-0.1-22S1087.5,781.4,1083.6,792.1z"/>
			<path class="st9" d="M1102.6,802.4c-11.3,2.3-18.9,11.7-18.9,11.7s10.8,5.8,22.1,3.5s18.9-11.7,18.9-11.7
				S1113.9,800.1,1102.6,802.4z"/>
			<path class="st9" d="M1104.2,766.3c-1.4,11.3,5.3,21.4,5.3,21.4s8.9-8.3,10.3-19.6c1.4-11.3-5.3-21.4-5.3-21.4
				S1105.5,755,1104.2,766.3z"/>
			<path class="st9" d="M1125.2,771.9c-10.5,4.8-15.6,15.8-15.6,15.8s11.8,3,22.3-1.8c10.5-4.8,15.6-15.8,15.6-15.8
				S1135.7,767,1125.2,771.9z"/>
		</g>
		<g>
			<path class="st9" d="M1119,737.5c0.9,11.3,9.6,19.9,9.6,19.9s7-9.8,6.1-21.1s-9.6-19.9-9.6-19.9S1118.1,726.1,1119,737.5z"/>
			<path class="st9" d="M1140.7,738.8c-9.3,6.8-12.1,18.5-12.1,18.5s12.2,0.7,21.5-6.1c9.3-6.8,12.1-18.5,12.1-18.5
				S1150,732,1140.7,738.8z"/>
			<path class="st9" d="M1127.7,708.3c2.8,11.1,12.7,18.1,12.7,18.1s5.4-10.8,2.6-21.9c-2.8-11.1-12.7-18.1-12.7-18.1
				S1124.9,697.3,1127.7,708.3z"/>
			<path class="st9" d="M1149.3,706.3c-8.1,8.2-9,20.2-9,20.2s12.1-1.3,20.2-9.4s9-20.2,9-20.2S1157.4,698.1,1149.3,706.3z"/>
			<path class="st9" d="M1128.5,677c5.4,10,16.7,14.6,16.7,14.6s2.5-11.8-2.8-21.9c-5.4-10-16.7-14.6-16.7-14.6
				S1123,666.9,1128.5,677z"/>
			<path class="st9" d="M1149,669.9c-5.9,9.8-3.8,21.7-3.8,21.7s11.5-4.1,17.4-13.9c5.9-9.8,3.8-21.7,3.8-21.7
				S1154.7,660,1149,669.9z"/>
			<path class="st9" d="M1122.4,644.2c7.6,8.5,19.8,10.3,19.8,10.3s-0.3-12-8-20.5c-7.6-8.5-19.8-10.3-19.8-10.3
				S1114.8,635.7,1122.4,644.2z"/>
			<path class="st9" d="M1140.6,632.6c-3.2,10.9,1.6,22,1.6,22s10.3-6.6,13.5-17.6c3.2-10.9-1.6-22-1.6-22S1144,621.7,1140.6,632.6z
				"/>
		</g>
		<path class="st9" d="M1110.9,617.8c9.4,6.6,21.7,5.5,21.7,5.5s-3.1-11.6-12.6-18.2c-9.4-6.6-21.7-5.5-21.7-5.5
			S1101.5,611.2,1110.9,617.8z"/>
		<path class="st9" d="M1126,602.3c-0.7,11.4,6.6,21,6.6,21s8.4-8.8,9.1-20.1c0.7-11.4-6.6-21-6.6-21S1126.6,591,1126,602.3z"/>
		<path class="st9" d="M1095.3,593.6c10.4,5,22.3,2.2,22.3,2.2s-4.9-11-15.3-16c-10.4-5-22.3-2.2-22.3-2.2
			S1084.8,588.6,1095.3,593.6z"/>
		<path class="st9" d="M1107.6,576.1c1.2,11.3,9.9,19.8,9.9,19.8s6.9-9.9,5.8-21.2c-1.2-11.3-9.9-19.8-9.9-19.8
			S1106.5,564.8,1107.6,576.1z"/>
		<path class="st9" d="M1086.9,558.9c-0.5,0.5-1,0.9-1.7,1.5c-0.2,0.1-0.4,0.2-0.5,0.3c36.3,30.9,59.1,75.6,59.1,125.2
			c0,93-80.1,168.6-178.6,168.6s-178.6-75.7-178.6-168.6c0-47.4,20.8-90.3,54.3-121c-0.9-0.3-1.9-0.6-2.9-1.2
			c-33.5,31.1-54.3,74.4-54.3,122.2c0,94.5,81.4,171.4,181.4,171.4c100.1,0,181.4-76.8,181.4-171.4
			C1146.7,635.6,1123.7,590.3,1086.9,558.9z"/>
		<path class="st9" d="M858.8,571c-11.3,2.4-22.1-3.2-22.1-3.2s7.5-9.5,18.8-11.9s22.1,3.2,22.1,3.2S870.1,568.6,858.8,571z"/>
		<path class="st9" d="M851.2,551c-3.9,10.7-14.4,16.7-14.4,16.7s-4.2-11.3-0.3-22s14.4-16.7,14.4-16.7S855.2,540.4,851.2,551z"/>
		<path class="st9" d="M1072.5,571c11.3,2.4,22.1-3.2,22.1-3.2s-7.5-9.5-18.8-11.9s-22.1,3.2-22.1,3.2S1061.2,568.6,1072.5,571z"/>
		<path class="st9" d="M1080.1,551c3.9,10.7,14.4,16.7,14.4,16.7s4.2-11.3,0.3-22s-14.4-16.7-14.4-16.7S1076.1,540.4,1080.1,551z"/>
	</g>
	<path class="st5" d="M995.2,647.5c22.6,6.1,36.6,20.4,36.6,44.1c0,56.6-79.1,64.8-132.7,50l2.7-39.6c20.8,10.7,54.4,14.8,71.7,3.6
		c14.1-9.2,12.6-26.8,2.4-34c-11.3-8-28.9-4.7-45.3-5.4v-33.5h20.9c41.1,0,42.1-43-1-43c-14.6,0-29.1,3.1-43.1,8.5l-2.2-35.4
		c9-2.7,18.2-4.8,27.4-6.3c102-15.3,105.8,52.7,87.4,75.6C1014.4,639,1006.1,644.2,995.2,647.5z"/>
</g>
</svg>
