<?xml version="1.0" encoding="utf-8"?>
<!-- Generator: Adobe Illustrator 24.3.0, SVG Export Plug-In . SVG Version: 6.00 Build 0)  -->
<svg version="1.1" id="Calque_1" xmlns="http://www.w3.org/2000/svg" xmlns:xlink="http://www.w3.org/1999/xlink" x="0px" y="0px"
	 viewBox="0 0 1920 1080" style="enable-background:new 0 0 1920 1080;" xml:space="preserve">
<style type="text/css">
	.st0{opacity:0.75;}
	.st1{fill:#8F2424;}
	.st2{fill:#C95717;}
	.st3{fill:#F9362D;}
	.st4{fill:#7F1711;}
	.st5{fill:#FAB73E;}
	.st6{fill:#EB7708;}
	.st7{fill:#F49954;}
	.st8{opacity:0.69;}
	.st9{fill:#F9B24C;}
</style>
<g class="st0">
	<polygon class="st1" points="1002.8,19.5 913.1,239.3 726.7,239.3 809.5,19.5 	"/>
	<path class="st2" d="M921.6,201.2H719.8c-13.2,0-24,10.7-24,24v128.5h249.7V225.2C945.6,211.9,934.8,201.2,921.6,201.2z
		 M927.8,248.2H709v-9.8c0-10.7,8.7-19.3,19.3-19.3h180.2c10.7,0,19.3,8.7,19.3,19.3V248.2z"/>
	<polygon class="st3" points="640,19.5 726.7,239.3 913.1,239.3 828.3,19.5 	"/>
	<g>
		<polygon class="st4" points="768,239.3 674.6,19.5 663.9,19.5 757.3,239.3 		"/>
		<polygon class="st4" points="802.2,239.3 708.9,19.5 698.1,19.5 791.5,239.3 		"/>
		<polygon class="st4" points="841.3,239.3 747.9,19.5 737.2,19.5 830.5,239.3 		"/>
		<polygon class="st4" points="878.8,239.3 785.5,19.5 774.7,19.5 868.1,239.3 		"/>
	</g>
	
		<ellipse transform="matrix(0.7071 -0.7071 0.7071 0.7071 -146.9015 736.3976)" class="st5" cx="815.5" cy="545.5" rx="270.8" ry="270.8"/>
	<path class="st6" d="M1002.7,349.9c46.5,48.6,75.1,114.6,75.1,187.2c0,149.5-121.2,270.8-270.8,270.8
		c-72.6,0-138.6-28.6-187.2-75.1c49.3,51.5,118.7,83.6,195.6,83.6c149.5,0,270.8-121.2,270.8-270.8
		C1086.2,468.6,1054.1,399.2,1002.7,349.9z"/>
	
		<ellipse transform="matrix(0.7071 -0.7071 0.7071 0.7071 -146.9015 736.3976)" class="st7" cx="815.5" cy="545.5" rx="220.8" ry="220.8"/>
	<g class="st8">
		<g>
			<path class="st9" d="M793.7,701.6c8.6,6.8,10.9,18.1,10.9,18.1s-11.7,0.3-20.3-6.5c-8.6-6.8-10.9-18.1-10.9-18.1
				S785.1,694.8,793.7,701.6z"/>
			<path class="st9" d="M783.3,719.3c10.4-3.6,21.4,0.4,21.4,0.4s-5.9,9.9-16.4,13.5c-10.4,3.6-21.4-0.4-21.4-0.4
				S772.9,722.9,783.3,719.3z"/>
		</g>
		<g>
			<path class="st9" d="M760,692.5c7.6,7.9,8.3,19.4,8.3,19.4s-11.6-1.3-19.2-9.2c-7.6-7.9-8.3-19.4-8.3-19.4S752.4,684.6,760,692.5
				z"/>
			<path class="st9" d="M747.2,708.6c10.8-2.2,21.1,3.3,21.1,3.3s-7.3,9-18.1,11.2c-10.8,2.2-21.1-3.3-21.1-3.3
				S736.4,710.7,747.2,708.6z"/>
			<path class="st9" d="M733.5,679.4c6.2,9,5.1,20.4,5.1,20.4s-11.3-3.1-17.5-12.1c-6.2-9-5.1-20.4-5.1-20.4
				S727.3,670.4,733.5,679.4z"/>
			<path class="st9" d="M718.3,693.2c11-0.5,20.3,6.6,20.3,6.6s-8.6,7.8-19.7,8.2c-11,0.5-20.3-6.6-20.3-6.6
				S707.2,693.7,718.3,693.2z"/>
			<path class="st9" d="M708.7,659.4c3.8,10.2-0.1,21-0.1,21s-10.2-5.7-14-15.9c-3.8-10.2,0.1-21,0.1-21S704.9,649.2,708.7,659.4z"
				/>
			<path class="st9" d="M690.5,669.2c10.8,2.2,18.1,11.2,18.1,11.2s-10.3,5.5-21.1,3.3c-10.8-2.2-18.1-11.2-18.1-11.2
				S679.7,667,690.5,669.2z"/>
			<path class="st9" d="M690,636.2c1.3,10.8-5.1,20.4-5.1,20.4s-8.5-7.9-9.8-18.7c-1.3-10.8,5.1-20.4,5.1-20.4
				S688.7,625.4,690,636.2z"/>
			<path class="st9" d="M670,641.6c10,4.6,14.9,15.1,14.9,15.1s-11.3,2.9-21.3-1.7c-10-4.6-14.9-15.1-14.9-15.1S660,636.9,670,641.6
				z"/>
		</g>
		<g>
			<path class="st9" d="M674,607.1c-0.9,10.8-9.2,19-9.2,19s-6.7-9.4-5.8-20.2c0.9-10.8,9.2-19,9.2-19S674.9,596.3,674,607.1z"/>
			<path class="st9" d="M653.3,608.4c8.9,6.5,11.6,17.7,11.6,17.7s-11.7,0.7-20.5-5.8c-8.9-6.5-11.6-17.7-11.6-17.7
				S644.5,601.9,653.3,608.4z"/>
			<path class="st9" d="M665.8,579.3c-2.7,10.6-12.1,17.3-12.1,17.3s-5.1-10.3-2.5-20.9c2.7-10.6,12.1-17.3,12.1-17.3
				S668.4,568.8,665.8,579.3z"/>
			<path class="st9" d="M645.1,577.4c7.7,7.8,8.6,19.3,8.6,19.3s-11.6-1.2-19.3-9c-7.7-7.8-8.6-19.3-8.6-19.3
				S637.4,569.6,645.1,577.4z"/>
			<path class="st9" d="M664.9,548.4c-5.2,9.6-16,13.9-16,13.9s-2.4-11.3,2.7-20.9c5.2-9.6,16-13.9,16-13.9S670.1,538.8,664.9,548.4
				z"/>
			<path class="st9" d="M645.3,541.6c5.5,9.4,3.5,20.7,3.5,20.7s-11-3.9-16.6-13.3c-5.6-9.4-3.6-20.7-3.6-20.7
				S639.8,532.2,645.3,541.6z"/>
			<path class="st9" d="M670.4,517.1c-7.3,8.1-18.9,9.8-18.9,9.8s0.3-11.5,7.6-19.6c7.3-8.1,18.9-9.8,18.9-9.8
				S677.7,509,670.4,517.1z"/>
			<path class="st9" d="M653,506c3.2,10.4-1.5,21-1.5,21s-9.8-6.3-12.9-16.8c-3.1-10.4,1.5-21,1.5-21S649.9,495.5,653,506z"/>
		</g>
		<path class="st9" d="M681.7,491.4c-9,6.3-20.7,5.3-20.7,5.3s3-11.1,12-17.4c9-6.3,20.7-5.3,20.7-5.3S690.7,485.1,681.7,491.4z"/>
		<path class="st9" d="M667.4,476.7c0.7,10.9-6.3,20.1-6.3,20.1s-8-8.4-8.7-19.2c-0.7-10.9,6.3-20.1,6.3-20.1
			S666.7,465.8,667.4,476.7z"/>
		<path class="st9" d="M695.9,468.2c-9.9,4.8-21.3,2.1-21.3,2.1s4.7-10.5,14.6-15.3c9.9-4.8,21.3-2.1,21.3-2.1
			S705.8,463.4,695.9,468.2z"/>
		<path class="st9" d="M684.1,451.4c-1.1,10.8-9.5,18.9-9.5,18.9s-6.6-9.5-5.5-20.3c1.1-10.8,9.5-18.9,9.5-18.9
			S685.2,440.6,684.1,451.4z"/>
		<g>
			<path class="st9" d="M853.7,700.2c-8.6,6.8-10.9,18.1-10.9,18.1s11.7,0.3,20.3-6.5c8.6-6.8,10.9-18.1,10.9-18.1
				S862.3,693.4,853.7,700.2z"/>
			<path class="st9" d="M864.1,717.8c-10.4-3.6-21.4,0.4-21.4,0.4s5.9,9.9,16.4,13.5c10.4,3.6,21.4-0.4,21.4-0.4
				S874.5,721.4,864.1,717.8z"/>
		</g>
		<g>
			<path class="st9" d="M883.1,692.5c-7.6,7.9-8.3,19.4-8.3,19.4s11.6-1.3,19.2-9.2c7.6-7.9,8.3-19.4,8.3-19.4
				S890.7,684.6,883.1,692.5z"/>
			<path class="st9" d="M895.9,708.6c-10.8-2.2-21.1,3.3-21.1,3.3s7.3,9,18.1,11.2c10.8,2.2,21.1-3.3,21.1-3.3
				S906.7,710.7,895.9,708.6z"/>
			<path class="st9" d="M909.6,678.3c-6.2,9-5.1,20.4-5.1,20.4s11.3-3.1,17.5-12.1c6.2-9,5.1-20.4,5.1-20.4S915.8,669.3,909.6,678.3
				z"/>
			<path class="st9" d="M924.8,692.1c-11-0.5-20.3,6.6-20.3,6.6s8.6,7.8,19.7,8.2c11,0.5,20.3-6.6,20.3-6.6S935.8,692.6,924.8,692.1
				z"/>
			<path class="st9" d="M933.5,658.8c-3.8,10.2,0.1,21,0.1,21s10.2-5.7,14-15.9c3.8-10.2-0.1-21-0.1-21S937.3,648.6,933.5,658.8z"/>
			<path class="st9" d="M951.7,668.6c-10.8,2.2-18.1,11.2-18.1,11.2s10.3,5.5,21.1,3.3c10.8-2.2,18.1-11.2,18.1-11.2
				S962.5,666.4,951.7,668.6z"/>
			<path class="st9" d="M953.2,634.1c-1.3,10.8,5.1,20.4,5.1,20.4s8.5-7.9,9.8-18.7c1.3-10.8-5.1-20.4-5.1-20.4
				S954.5,623.3,953.2,634.1z"/>
			<path class="st9" d="M973.3,639.5c-10,4.6-14.9,15.1-14.9,15.1s11.3,2.9,21.3-1.7c10-4.6,14.9-15.1,14.9-15.1
				S983.3,634.8,973.3,639.5z"/>
		</g>
		<g>
			<path class="st9" d="M967.4,606.6c0.9,10.8,9.2,19,9.2,19s6.7-9.4,5.8-20.2c-0.9-10.8-9.2-19-9.2-19S966.5,595.7,967.4,606.6z"/>
			<path class="st9" d="M988.1,607.9c-8.9,6.5-11.6,17.7-11.6,17.7s11.7,0.7,20.5-5.8c8.9-6.5,11.6-17.7,11.6-17.7
				S997,601.4,988.1,607.9z"/>
			<path class="st9" d="M975.7,578.7c2.7,10.6,12.1,17.3,12.1,17.3s5.2-10.3,2.5-20.9c-2.7-10.6-12.1-17.3-12.1-17.3
				S973,568.2,975.7,578.7z"/>
			<path class="st9" d="M996.3,576.8c-7.7,7.8-8.6,19.3-8.6,19.3s11.6-1.2,19.3-9c7.7-7.8,8.6-19.3,8.6-19.3S1004,569,996.3,576.8z"
				/>
			<path class="st9" d="M976.4,548.8c5.2,9.6,16,13.9,16,13.9s2.4-11.3-2.7-20.9c-5.2-9.6-16-13.9-16-13.9S971.2,539.2,976.4,548.8z
				"/>
			<path class="st9" d="M996,542c-5.6,9.4-3.6,20.7-3.6,20.7s11-3.9,16.6-13.3c5.6-9.4,3.6-20.7,3.6-20.7S1001.5,532.6,996,542z"/>
			<path class="st9" d="M970.6,517.5c7.3,8.1,18.9,9.8,18.9,9.8s-0.3-11.5-7.6-19.6c-7.3-8.1-18.9-9.8-18.9-9.8
				S963.3,509.4,970.6,517.5z"/>
			<path class="st9" d="M988,506.4c-3.1,10.4,1.5,21,1.5,21s9.8-6.3,12.9-16.8c3.1-10.4-1.5-21-1.5-21S991.2,496,988,506.4z"/>
		</g>
		<path class="st9" d="M959.6,492.3c9,6.3,20.7,5.3,20.7,5.3s-3-11.1-12-17.4c-9-6.3-20.7-5.3-20.7-5.3S950.6,486,959.6,492.3z"/>
		<path class="st9" d="M974,477.5c-0.7,10.9,6.3,20.1,6.3,20.1s8-8.4,8.7-19.2c0.7-10.9-6.3-20.1-6.3-20.1S974.6,466.7,974,477.5z"
			/>
		<path class="st9" d="M944.7,469.2c9.9,4.8,21.3,2.1,21.3,2.1s-4.7-10.5-14.6-15.3c-9.9-4.8-21.3-2.1-21.3-2.1
			S934.7,464.4,944.7,469.2z"/>
		<path class="st9" d="M956.5,452.4c1.1,10.8,9.5,18.9,9.5,18.9s6.6-9.5,5.5-20.3c-1.1-10.8-9.5-18.9-9.5-18.9
			S955.4,441.6,956.5,452.4z"/>
		<path class="st9" d="M936.7,436c-0.5,0.5-1,0.9-1.6,1.4c-0.2,0.1-0.4,0.2-0.5,0.3c34.7,29.5,56.5,72.2,56.5,119.6
			c0,88.8-76.5,161.1-170.6,161.1c-94.1,0-170.6-72.3-170.6-161.1c0-45.3,19.9-86.3,51.9-115.6c-0.9-0.3-1.8-0.6-2.8-1.1
			c-32,29.7-51.9,71.1-51.9,116.7c0,90.3,77.8,163.7,173.3,163.7c95.6,0,173.3-73.4,173.3-163.7C993.8,509.3,971.8,466,936.7,436z"
			/>
		<path class="st9" d="M718.8,447.6c-10.8,2.3-21.1-3.1-21.1-3.1s7.2-9.1,18-11.4c10.8-2.3,21.1,3.1,21.1,3.1
			S729.6,445.3,718.8,447.6z"/>
		<path class="st9" d="M711.5,428.5c-3.7,10.2-13.8,16-13.8,16s-4-10.8-0.3-21c3.7-10.2,13.8-16,13.8-16S715.3,418.3,711.5,428.5z"
			/>
		<path class="st9" d="M922.9,447.6c10.8,2.3,21.1-3.1,21.1-3.1s-7.2-9.1-18-11.4s-21.1,3.1-21.1,3.1S912.1,445.3,922.9,447.6z"/>
		<path class="st9" d="M930.2,428.5c3.7,10.2,13.8,16,13.8,16s4-10.8,0.3-21c-3.7-10.2-13.8-16-13.8-16S926.4,418.3,930.2,428.5z"/>
	</g>
	<path class="st5" d="M849.1,520.6c21.6,5.8,35,19.5,35,42.1c0,54.1-75.6,61.9-126.8,47.8l2.6-37.8c19.9,10.2,52,14.1,68.5,3.4
		c13.5-8.8,12-25.6,2.3-32.5c-10.8-7.6-27.6-4.5-43.3-5.2v-32h20c39.3,0,40.2-41.1-1-41.1c-13.9,0-27.8,3-41.2,8.1l-2.1-33.8
		c8.6-2.6,17.4-4.6,26.2-6c97.4-14.6,101.1,50.3,83.5,72.2C867.4,512.5,859.5,517.5,849.1,520.6z"/>
</g>
</svg>
